<svg xmlns="http://www.w3.org/2000/svg" xmlns:xlink="http://www.w3.org/1999/xlink" width="160" height="120" version="1.1" viewBox="0 0 160 120"><title>Artboard 3</title><desc>Created with Sketch.</desc><g id="Page-1" fill="none" fill-rule="evenodd" stroke="none" stroke-width="1"><g id="Artboard-3"><g id="Group-34" transform="translate(36.000000, 26.000000)"><rect id="Rectangle-80-Copy-7" width="88" height="67" x="0" y="0" stroke="#505050" stroke-linecap="round" stroke-linejoin="round" stroke-width="4"/><path id="Combined-Shape" fill="#F9524E" d="M48.5,56 C59.8218374,56 69,46.8218374 69,35.5 C69,24.1781626 59.8218374,15 48.5,15 C37.1781626,15 28,24.1781626 28,35.5 C28,46.8218374 37.1781626,56 48.5,56 Z M41,46 L41,26 L61,36 L41,46 Z"/><polygon id="Triangle-1" stroke="#505050" stroke-linecap="round" stroke-linejoin="round" stroke-width="4" points="37 43 37 23 57 33"/><g id="Group-26" stroke="#505050" stroke-linecap="round" stroke-linejoin="round" stroke-width="4" transform="translate(8.000000, 7.000000)"><rect id="Rectangle-100" width="9" height="9" x="63" y="0"/><rect id="Rectangle-100" width="9" height="9" x="63" y="14.667"/><rect id="Rectangle-100" width="9" height="9" x="63" y="29.333"/><rect id="Rectangle-100" width="9" height="9" x="63" y="44"/><rect id="Rectangle-100" width="9" height="9" x="0" y="0"/><rect id="Rectangle-100" width="9" height="9" x="0" y="14.667"/><rect id="Rectangle-100" width="9" height="9" x="0" y="29.333"/><rect id="Rectangle-100" width="9" height="9" x="0" y="44"/></g><circle id="Oval-58" cx="44.5" cy="32.5" r="20.5" stroke="#505050" stroke-linecap="round" stroke-linejoin="round" stroke-width="4"/></g></g></g></svg>