<svg xmlns="http://www.w3.org/2000/svg" xmlns:xlink="http://www.w3.org/1999/xlink" width="160" height="120" version="1.1" viewBox="0 0 160 120"><title>Artboard 3</title><desc>Created with Sketch.</desc><defs><rect id="path-1" width="42" height="8" x=".67" y="55.036"/><rect id="path-3" width="8" height="8" x="17.67" y="-8.964"/></defs><g id="Page-1" fill="none" fill-rule="evenodd" stroke="none" stroke-width="1"><g id="Artboard-3"><g id="Group-17" transform="translate(32.000000, 17.000000)"><polygon id="Rectangle-70" fill="#F9524E" points="49 26 77.82 26 91 45 77.82 64 30 64 30 26" transform="translate(60.500000, 45.000000) rotate(30.000000) translate(-60.500000, -45.000000)"/><g id="Group-16"><g id="Group-15" transform="translate(47.080127, 55.263140) rotate(-330.000000) translate(-47.080127, -55.263140) translate(16.580127, 14.763140)"><polyline id="Rectangle-70" stroke="#505050" stroke-linecap="round" stroke-linejoin="round" stroke-width="4" points="19 0 47.82 0 61 19 47.82 38 0 38 .134 28.29"/><mask id="mask-2" fill="#fff"><use xlink:href="#path-1"/></mask><use id="Rectangle-71" stroke="#505050" stroke-linecap="round" stroke-linejoin="round" stroke-width="3.6" transform="translate(21.669873, 59.035898) rotate(-270.000000) translate(-21.669873, -59.035898)" xlink:href="#path-1"/><mask id="mask-4" fill="#fff"><use xlink:href="#path-3"/></mask><use id="Rectangle-71" stroke="#505050" stroke-linecap="round" stroke-linejoin="round" stroke-width="3.6" transform="translate(21.669873, -4.964102) scale(1, -1) rotate(-270.000000) translate(-21.669873, 4.964102)" xlink:href="#path-3"/></g><g id="Group-14" stroke="#505050" stroke-linecap="round" stroke-linejoin="round" stroke-width="4" transform="translate(31.756098, 0.412831)"><path id="Line" d="M0.5,0.5 L23.586792,23.586792"/><path id="Line" d="M0.5,0.5 L23.586792,23.586792" transform="translate(12.000000, 12.000000) scale(-1, 1) translate(-12.000000, -12.000000)"/></g></g></g></g></g></svg>