<svg xmlns="http://www.w3.org/2000/svg" xmlns:xlink="http://www.w3.org/1999/xlink" width="160" height="120" version="1.1" viewBox="0 0 160 120"><title>Artboard 3</title><desc>Created with Sketch.</desc><g id="Page-1" fill="none" fill-rule="evenodd" stroke="none" stroke-width="1"><g id="Artboard-3"><g id="3" transform="translate(47.000000, 13.000000)"><path id="Stroke-46" fill="#CF0" d="M36.9525938,75.6833774 L36.9525938,75.6833774 C28.4286423,75.6833774 21.4545002,68.7527871 21.4545002,60.2820655 L21.4545002,22.747411 C21.4545002,14.2766895 28.4286423,7.34609918 36.9525938,7.34609918 L36.9525938,7.34609918 C45.4765453,7.34609918 52.4506875,14.2766895 52.4506875,22.747411 L52.4506875,60.2820655 C52.4506875,68.7527871 45.4765453,75.6833774 36.9525938,75.6833774 L36.9525938,75.6833774 Z"/><path id="Stroke-46-Copy" stroke="#474747" stroke-width="4" d="M32.9525938,68.6833774 L32.9525938,68.6833774 C24.4286423,68.6833774 17.4545002,61.7527871 17.4545002,53.2820655 L17.4545002,15.747411 C17.4545002,7.27668951 24.4286423,0.34609918 32.9525938,0.34609918 L32.9525938,0.34609918 C41.4765453,0.34609918 48.4506875,7.27668951 48.4506875,15.747411 L48.4506875,53.2820655 C48.4506875,61.7527871 41.4765453,68.6833774 32.9525938,68.6833774 L32.9525938,68.6833774 Z"/><path id="Stroke-47" stroke="#474747" stroke-width="4" d="M60.8025986,31.9840541 L60.8025986,52.9985571 C60.8025986,67.8093702 48.6091433,79.9266804 33.7052591,79.9266804 L31.7158738,79.9266804 C16.8119896,79.9266804 4.61853427,67.8093702 4.61853427,52.9985571 L4.61853427,32.8059178"/><path id="Fill-48" fill="#474747" d="M10.3540451,33.2168497 C10.3540451,36.0156755 8.07103,38.2844338 5.25461634,38.2844338 C2.43820269,38.2844338 0.153450098,36.0156755 0.153450098,33.2168497 C0.153450098,30.4180239 2.43820269,28.1492656 5.25461634,28.1492656 C8.07103,28.1492656 10.3540451,30.4180239 10.3540451,33.2168497"/><path id="Fill-49" fill="#474747" d="M65.9525873,33.2168497 C65.9525873,36.0156755 63.6695722,38.2844338 60.8531585,38.2844338 C58.0367449,38.2844338 55.7519923,36.0156755 55.7519923,33.2168497 C55.7519923,30.4180239 58.0367449,28.1492656 60.8531585,28.1492656 C63.6695722,28.1492656 65.9525873,30.4180239 65.9525873,33.2168497"/><path id="Stroke-50" stroke="#474747" stroke-width="4" d="M48.4508612,33 L60.852811,33"/><path id="Stroke-51" stroke="#474747" stroke-width="4" d="M5.25409511,33 L17.4545002,33"/><polyline id="Stroke-52" stroke="#474747" stroke-width="4" points="31.716 79.926 31.716 92.737 14.961 92.737 49.952 92.737"/><path id="Stroke-53" stroke="#474747" stroke-width="4" d="M25.8550924,19 L17.4545002,19"/><path id="Stroke-54" stroke="#474747" stroke-width="4" d="M25.8550924,26 L17.4545002,26"/><path id="Stroke-55" stroke="#474747" stroke-width="4" d="M48.4420002,23 L40.041408,23"/></g></g></g></svg>