<svg xmlns="http://www.w3.org/2000/svg" xmlns:xlink="http://www.w3.org/1999/xlink" width="160" height="120" version="1.1" viewBox="0 0 160 120"><title>Artboard 3</title><desc>Created with Sketch.</desc><g id="Page-1" fill="none" fill-rule="evenodd" stroke="none" stroke-width="1"><g id="Artboard-3"><g id="Group-25" transform="translate(5.000000, 11.000000)"><rect id="Rectangle-80-Copy-3" width="56.677" height="60" x="76.662" y="38.447" stroke="#505050" stroke-linecap="round" stroke-linejoin="round" stroke-width="4" transform="translate(105.000000, 68.447431) rotate(-90.000000) translate(-105.000000, -68.447431)"/><g id="Group-22" stroke="#505050" stroke-linecap="round" stroke-linejoin="round" stroke-width="4" transform="translate(88.000000, 49.000000)"><g id="Group-21" transform="translate(0.000000, 0.808219)"><path id="Line" d="M1.5,0.47260274 L1.5,11.8150685"/><path id="Line" d="M11.5,0.47260274 L11.5,11.8150685"/><path id="Line" d="M21.5,0.47260274 L21.5,11.8150685"/><path id="Line" d="M31.5,0.47260274 L31.5,11.8150685"/></g><g id="Group-21" transform="translate(0.000000, 19.712329)"><path id="Line" d="M1.5,0.47260274 L1.5,11.8150685"/><path id="Line" d="M11.5,0.47260274 L11.5,11.8150685"/><path id="Line" d="M21.5,0.47260274 L21.5,11.8150685"/><path id="Line" d="M31.5,0.47260274 L31.5,11.8150685"/></g></g><rect id="Rectangle-80-Copy-3" width="96" height="60" x="-3" y="18.786" stroke="#505050" stroke-linecap="round" stroke-linejoin="round" stroke-width="4" transform="translate(45.000000, 48.785721) rotate(-90.000000) translate(-45.000000, -48.785721)"/><g id="Group-22" transform="translate(28.000000, 12.000000)"><rect id="Rectangle-80-Copy-2" width="40" height="31" x="1" y="10" fill="#F9524E"/><g id="Group-21" stroke="#505050" stroke-linecap="round" stroke-linejoin="round" stroke-width="4"><path id="Line" d="M1.5,0.164999999 L1.5,4.12499996"/><path id="Line" d="M11.5,0.164999999 L11.5,4.12499996"/><path id="Line" d="M21.5,0.164999999 L21.5,4.12499996"/><path id="Line" d="M31.5,0.164999999 L31.5,4.12499996"/></g><g id="Group-21" stroke="#505050" stroke-linecap="round" stroke-linejoin="round" stroke-width="4" transform="translate(0.000000, 37.808219)"><path id="Line" d="M1.5,0.47260274 L1.5,11.8150685"/><path id="Line" d="M11.5,0.47260274 L11.5,11.8150685"/><path id="Line" d="M21.5,0.47260274 L21.5,11.8150685"/><path id="Line" d="M31.5,0.47260274 L31.5,11.8150685"/></g><g id="Group-21" stroke="#505050" stroke-linecap="round" stroke-linejoin="round" stroke-width="4" transform="translate(0.000000, 56.712329)"><path id="Line" d="M1.5,0.47260274 L1.5,11.8150685"/><path id="Line" d="M11.5,0.47260274 L11.5,11.8150685"/><path id="Line" d="M21.5,0.47260274 L21.5,11.8150685"/><path id="Line" d="M31.5,0.47260274 L31.5,11.8150685"/></g></g><g id="Group-23" stroke="#505050" stroke-linecap="round" stroke-linejoin="round" stroke-width="4" transform="translate(24.000000, 17.000000)"><rect id="Rectangle-80-Copy-6" width="40" height="31" x="0" y="0"/></g><path id="Line" stroke="#505050" stroke-linecap="round" stroke-linejoin="round" stroke-width="4" d="M0.5,96.5 L149.473145,96.5"/></g></g></g></svg>