<svg xmlns="http://www.w3.org/2000/svg" xmlns:xlink="http://www.w3.org/1999/xlink" width="160" height="120" version="1.1" viewBox="0 0 160 120"><title>Artboard 3</title><desc>Created with Sketch.</desc><g id="Page-1" fill="none" fill-rule="evenodd" stroke="none" stroke-width="1"><g id="Artboard-3"><g id="Group-32-Copy" transform="translate(5.000000, 3.000000)"><g id="Group-13"><polygon id="Path-449" fill="#F9524E" points="38.787 5 17.636 37.657 27.622 37.657 8.719 67.448 19.091 67.448 5 91.692 73.756 91.692 59.771 67.448 70.878 67.448 51.226 37.657 61.309 37.657" transform="translate(39.377956, 48.346185) scale(-1, 1) translate(-39.377956, -48.346185)"/><polygon id="Path-449" stroke="#505050" stroke-linecap="round" stroke-linejoin="round" stroke-width="4" points="33.787 0 12.636 32.657 22.622 32.657 3.719 62.448 14.091 62.448 0 86.692 68.756 86.692 54.771 62.448 65.878 62.448 46.226 32.657 56.309 32.657" transform="translate(34.377956, 43.346185) scale(-1, 1) translate(-34.377956, -43.346185)"/><polyline id="Path-450" stroke="#505050" stroke-linecap="round" stroke-linejoin="round" stroke-width="4" points="28.346 86.561 28.346 110.101 40.238 110.101 40.238 86.561"/></g><g id="Group-12-Copy" stroke="#505050" stroke-linecap="round" stroke-linejoin="round" stroke-width="4" transform="translate(79.177515, 71.137143)"><path id="Line" d="M1.5443787,39.5457143 L1.5443787,24.5457143"/><path id="Line-Copy-12" d="M36.9053254,39.5457143 L36.9053254,24.5457143"/><path id="Line-Copy-11" d="M3.5443787,23.5157369 L3.5443787,0.515736896"/><path id="Line-Copy-10" d="M34.9053254,23.5157369 L34.9053254,0.515736896"/></g><path id="Line" stroke="#505050" stroke-linecap="round" stroke-linejoin="round" stroke-width="4" d="M76.5,73.5 L120.602154,73.5"/><path id="Line" stroke="#505050" stroke-linecap="round" stroke-linejoin="round" stroke-width="4" d="M76.5,81.5 L120.602154,81.5"/><path id="Line" stroke="#505050" stroke-linecap="round" stroke-linejoin="round" stroke-width="4" d="M72,95 L127,95"/></g></g></g></svg>