<svg xmlns="http://www.w3.org/2000/svg" xmlns:xlink="http://www.w3.org/1999/xlink" width="160" height="120" version="1.1" viewBox="0 0 160 120"><title>Artboard 3</title><desc>Created with Sketch.</desc><defs><rect id="path-1" width="94" height="63" x="0" y="18" rx="5"/><mask id="mask-2" width="94" height="63" x="0" y="0" fill="#fff" maskContentUnits="userSpaceOnUse" maskUnits="objectBoundingBox"><use xlink:href="#path-1"/></mask></defs><g id="Page-1" fill="none" fill-rule="evenodd" stroke="none" stroke-width="1"><g id="Artboard-3"><g id="Group-8-Copy" transform="translate(31.000000, 17.000000)"><g id="Group-7"><path id="Path-415" stroke="#505050" stroke-linecap="round" stroke-linejoin="round" stroke-width="3" d="M31.9375,18.5078125 L50.4589844,0.138671875"/><path id="Combined-Shape" fill="#CF0" d="M5,27.9961638 C5,25.2368587 7.23089406,23 10.0040358,23 L93.9959642,23 C96.7596169,23 99,25.2422034 99,27.9961638 L99,81.0038362 C99,83.7631413 96.7691059,86 93.9959642,86 L10.0040358,86 C7.24038314,86 5,83.7577966 5,81.0038362 L5,27.9961638 Z M36,75 C47.045695,75 56,66.045695 56,55 C56,43.954305 47.045695,35 36,35 C24.954305,35 16,43.954305 16,55 C16,66.045695 24.954305,75 36,75 Z"/><use id="Rectangle-51" stroke="#505050" stroke-width="6" mask="url(#mask-2)" xlink:href="#path-1"/><circle id="Oval-48" cx="31" cy="50" r="20" stroke="#505050" stroke-width="3"/><path id="Line" stroke="#505050" stroke-linecap="round" stroke-linejoin="round" stroke-width="4" d="M62.5,44.5 L81.735384,44.5"/><path id="Line-Copy-3" stroke="#505050" stroke-linecap="round" stroke-linejoin="round" stroke-width="4" d="M62.5,54.5 L81.735384,54.5"/><path id="Line" stroke="#505050" stroke-linecap="round" stroke-linejoin="round" stroke-width="4" d="M62.5,64.5 L81.735384,64.5"/><circle id="Oval-51" cx="63.5" cy="33.5" r="2.5" fill="#505050"/><circle id="Oval-51" cx="72.5" cy="33.5" r="2.5" fill="#505050"/><circle id="Oval-51" cx="81.5" cy="33.5" r="2.5" fill="#505050"/></g></g></g></g></svg>