<svg xmlns="http://www.w3.org/2000/svg" xmlns:xlink="http://www.w3.org/1999/xlink" width="290" height="243" version="1.1" viewBox="0 0 290 243"><title>Group 35</title><desc>Created with Sketch.</desc><g id="Page-1" fill="none" fill-rule="evenodd" stroke="none" stroke-width="1"><g id="Group-35" transform="translate(-2.000000, -12.000000)"><g id="Group-5-Copy-2" transform="translate(0.000000, 46.000000)"><path id="Rectangle-10" fill="#E33D39" d="M276.714365,61.1101351 L196.571971,192.201214 C195.420987,194.083909 192.701206,195.610135 190.488201,195.610135 L19.7143655,195.610135 L17.9823147,191.90939 L274.116289,56.3538324 L276.714365,61.1101351 Z" transform="translate(147.348340, 125.981984) rotate(30.000000) translate(-147.348340, -125.981984)"/><path id="Rectangle-10" fill="#F9524E" d="M275.409264,56.2245359 L195.26687,187.315615 C194.115886,189.19831 191.396105,190.724536 189.1831,190.724536 L18.4092644,190.724536 L100.635699,56.2245359 L275.409264,56.2245359 Z" transform="translate(146.909264, 123.474536) rotate(30.000000) translate(-146.909264, -123.474536)"/></g><g id="Group-6-Copy-2" transform="translate(37.000000, 0.000000)"><g id="Group-5-Copy" transform="translate(32.182796, 102.043011)"><path id="Rectangle-7-Copy" fill="#E7E7E7" d="M0,0 L36.1075269,0 L36.1075269,27.7726907 C36.1075269,32.7400453 32.8341626,39.12916 28.8027463,42.038499 L24.3788641,45.2310677 C21.2450345,47.4926483 16.0445199,47.6515709 12.7863228,45.6005932 L3.38725536,39.6840457 C1.51652588,38.5064544 0,35.765888 0,33.5509163 L0,0 Z"/><path id="Rectangle-7" fill="#FFF" d="M0,0 L14.9139785,0 L14.9139785,43.1016462 C14.9139785,45.3080945 13.4018726,46.1417599 11.5297659,44.9593768 L3.38421257,39.8148168 C1.51516358,38.6343648 0,35.8855062 0,33.6809458 L0,0 Z"/></g><path id="Oval-3-Copy-8" fill="#FF5F5B" d="M48.8160005,113.011954 C65.1417877,113.011954 99.0461683,113.40443 99.0461683,113.40443 C99.0461683,113.40443 102.305643,14.6526805 102.305643,14.6526805 C102.305643,14.6526806 53.4830635,14.1290323 48.8160005,14.1290323 C32.4902133,14.1290323 19.2555479,36.2647282 19.2555479,63.5704929 C19.2555479,90.8762576 32.4902133,113.011954 48.8160005,113.011954 Z" transform="translate(60.780595, 63.766731) rotate(30.000000) translate(-60.780595, -63.766731)"/><path id="Oval-3-Copy-9" fill="#FF5F5C" d="M167.584312,202.03627 C173.575196,202.03627 181.069195,201.16406 181.069195,201.16406 C181.069195,201.16406 213.394663,157.712116 213.394663,125.415973 C213.394663,89.9351933 178.351158,48.3262182 178.351158,48.3262182 C178.351158,48.3262182 171.67114,48.7956759 167.584312,48.7956759 C142.283953,48.7956759 121.773961,83.0997514 121.773961,125.415973 C121.773961,167.732195 142.283953,202.03627 167.584312,202.03627 Z" transform="translate(167.584312, 125.181244) rotate(30.000000) translate(-167.584312, -125.181244)"/><path id="Oval-3-Copy-10" fill="#D52723" d="M176.405234,206.76584 C200.898766,206.76584 220.754697,172.462523 220.754697,130.147237 C220.754697,87.8319514 200.898766,53.5286345 176.405234,53.5286345 C151.911703,53.5286345 132.055772,87.8319514 132.055772,130.147237 C132.055772,172.462523 151.911703,206.76584 176.405234,206.76584 Z" transform="translate(176.405234, 130.147237) rotate(30.000000) translate(-176.405234, -130.147237)"/><ellipse id="Oval-3-Copy-11" cx="176.789" cy="130.741" fill="#FF5F5C" rx="38.521" ry="67.073" transform="translate(176.789125, 130.740741) rotate(30.000000) translate(-176.789125, -130.740741)"/><path id="Combined-Shape-Copy" fill="#E7E7E7" d="M138.422078,184.623015 C156.915216,189.963635 183.343892,172.926261 200.250345,143.643426 C216.966668,114.689905 218.660667,83.6601262 205.287731,70.0658464 C186.794594,64.7252265 160.365917,81.7626004 143.459465,111.045435 C126.743142,139.998956 125.049143,171.028735 138.422078,184.623015 Z"/><path id="Combined-Shape-Copy-2" fill="#F9524E" d="M160.06842,88.7156239 C153.814444,94.9920709 147.943501,102.618449 142.914958,111.328141 C137.858949,120.085406 134.177207,129.032611 131.870968,137.629875 C136.29028,140.740834 141.820489,143.282678 146.097432,145.751971 C156.334861,151.662554 170.976728,145.467993 178.800956,131.916032 C186.625185,118.364071 184.669552,102.587065 174.431469,96.6759787 C171.83065,95.1743629 166.019276,91.3355943 160.06842,88.7156239 Z"/><ellipse id="Oval-3-Copy-12" cx="95.797" cy="84.245" fill="#E33D39" rx="29.531" ry="49.392" transform="translate(95.797499, 84.245180) rotate(30.000000) translate(-95.797499, -84.245180)"/><path id="Combined-Shape-Copy-3" fill="#FFF" d="M112.878875,162.9598 C110.982215,161.032995 85.8425271,135.499344 75.1111955,124.891904 C63.955604,113.865103 63.5649145,94.5703149 76.1020984,72.8552754 C88.6392823,51.1402359 104.38394,42.0616199 119.400099,45.4482974 C127.560029,47.2886514 169.13383,57.0703421 174.523116,58.3386985 C157.859884,64.8518201 140.443595,80.5512469 127.878654,102.314363 C115.721322,123.371479 110.750967,145.523492 112.878875,162.9598 Z"/><ellipse id="Oval-3-Copy-13" cx="166.023" cy="124.761" fill="#E53631" rx="14.068" ry="23.53" transform="translate(166.023279, 124.761192) rotate(30.000000) translate(-166.023279, -124.761192)"/></g></g></g></svg>