<svg xmlns="http://www.w3.org/2000/svg" xmlns:xlink="http://www.w3.org/1999/xlink" width="160" height="120" version="1.1" viewBox="0 0 160 120"><title>Artboard 3</title><desc>Created with Sketch.</desc><g id="Page-1" fill="none" fill-rule="evenodd" stroke="none" stroke-width="1"><g id="Artboard-3"><g id="Group-10" transform="translate(49.000000, 12.000000)"><rect id="Rectangle-path" width="53" height="58.286" x="9" y="22.143" fill="#F9524E"/><rect id="Rectangle-path" width="20.761" height="3.429" x="20.761" y="6.857" fill="#2D2220"/><path id="Shape" fill="#505050" stroke="#505050" stroke-width=".5" d="M20.7612457,6.85714286 L20.7612457,10.2857143 L41.5224913,10.2857143 L41.5224913,6.85714286 L20.7612457,6.85714286 L20.7612457,6.85714286 Z M20.7612457,6.85714286 L20.7612457,10.2857143 L41.5224913,10.2857143 L41.5224913,6.85714286 L20.7612457,6.85714286 L20.7612457,6.85714286 Z M20.7612457,6.85714286 L20.7612457,10.2857143 L41.5224913,10.2857143 L41.5224913,6.85714286 L20.7612457,6.85714286 L20.7612457,6.85714286 Z M20.7612457,6.85714286 L20.7612457,10.2857143 L41.5224913,10.2857143 L41.5224913,6.85714286 L20.7612457,6.85714286 L20.7612457,6.85714286 Z M10.3806228,75.4285714 L10.3806228,78.8571429 L51.9031142,78.8571429 L51.9031142,75.4285714 L10.3806228,75.4285714 L10.3806228,75.4285714 Z M20.7612457,6.85714286 L20.7612457,10.2857143 L41.5224913,10.2857143 L41.5224913,6.85714286 L20.7612457,6.85714286 L20.7612457,6.85714286 Z M10.3806228,75.4285714 L10.3806228,78.8571429 L51.9031142,78.8571429 L51.9031142,75.4285714 L10.3806228,75.4285714 L10.3806228,75.4285714 Z M20.7612457,6.85714286 L20.7612457,10.2857143 L41.5224913,10.2857143 L41.5224913,6.85714286 L20.7612457,6.85714286 L20.7612457,6.85714286 Z M10.3806228,75.4285714 L10.3806228,78.8571429 L51.9031142,78.8571429 L51.9031142,75.4285714 L10.3806228,75.4285714 L10.3806228,75.4285714 Z M55.3633218,0 L6.92041522,0 C5.01730104,0 3.46020761,1.54285714 3.46020761,3.42857143 L3.46020761,20.5714286 L6.92041522,20.5714286 L6.92041522,17.1428571 L55.3633218,17.1428571 L55.3633218,89.1428571 C55.3633218,91.0285714 53.8062284,92.5714286 51.9031142,92.5714286 L10.3806228,92.5714286 C8.47750865,92.5714286 6.92041522,91.0285714 6.92041522,89.1428571 L6.92041522,37.7142857 L3.46020761,37.7142857 L3.46020761,92.5714286 C3.46020761,94.4571429 5.01730104,96 6.92041522,96 L55.3633218,96 C57.266436,96 58.8235294,94.4571429 58.8235294,92.5714286 L58.8235294,3.42857143 C58.8235294,1.54285714 57.266436,0 55.3633218,0 L55.3633218,0 Z M55.3633218,13.7142857 L6.92041522,13.7142857 L6.92041522,6.85714286 C6.92041522,4.97142857 8.47750865,3.42857143 10.3806228,3.42857143 L51.9031142,3.42857143 C53.8062284,3.42857143 55.3633218,4.97142857 55.3633218,6.85714286 L55.3633218,13.7142857 L55.3633218,13.7142857 Z M51.9031142,75.4285714 L10.3806228,75.4285714 L10.3806228,78.8571429 L51.9031142,78.8571429 L51.9031142,75.4285714 L51.9031142,75.4285714 Z M20.7612457,10.2857143 L41.5224913,10.2857143 L41.5224913,6.85714286 L20.7612457,6.85714286 L20.7612457,10.2857143 L20.7612457,10.2857143 Z M10.3806228,75.4285714 L10.3806228,78.8571429 L51.9031142,78.8571429 L51.9031142,75.4285714 L10.3806228,75.4285714 L10.3806228,75.4285714 Z M20.7612457,6.85714286 L20.7612457,10.2857143 L41.5224913,10.2857143 L41.5224913,6.85714286 L20.7612457,6.85714286 L20.7612457,6.85714286 Z M20.7612457,6.85714286 L20.7612457,10.2857143 L41.5224913,10.2857143 L41.5224913,6.85714286 L20.7612457,6.85714286 L20.7612457,6.85714286 Z M20.7612457,6.85714286 L20.7612457,10.2857143 L41.5224913,10.2857143 L41.5224913,6.85714286 L20.7612457,6.85714286 L20.7612457,6.85714286 Z M20.7612457,6.85714286 L20.7612457,10.2857143 L41.5224913,10.2857143 L41.5224913,6.85714286 L20.7612457,6.85714286 L20.7612457,6.85714286 Z"/><rect id="Rectangle-path" width="20.761" height="3.429" x="20.761" y="6.857" fill="#505050"/><rect id="Rectangle-path" width="20.761" height="3.429" x="20.761" y="6.857" fill="#505050"/><ellipse id="Oval" cx="31.142" cy="85.714" fill="#505050" rx="3.46" ry="3.429"/><path id="Shape" fill="#505050" stroke="#505050" stroke-width=".5" d="M10.3806228,25.7142857 C10.3806228,24.768 9.60553633,24 8.65051903,24 L1.73010381,24 C0.775086505,24 0,24.768 0,25.7142857 L0,25.7142857 C0,26.6605714 0.775086505,27.4285714 1.73010381,27.4285714 L8.65051903,27.4285714 C9.60553633,27.4285714 10.3806228,26.6605714 10.3806228,25.7142857 L10.3806228,25.7142857 L10.3806228,25.7142857 Z"/><path id="Shape" fill="#505050" stroke="#505050" stroke-width=".5" d="M10.3806228,32.5714286 C10.3806228,31.6251429 9.60553633,30.8571429 8.65051903,30.8571429 L1.73010381,30.8571429 C0.775086505,30.8571429 0,31.6251429 0,32.5714286 L0,32.5714286 C0,33.5177143 0.775086505,34.2857143 1.73010381,34.2857143 L8.65051903,34.2857143 C9.60553633,34.2857143 10.3806228,33.5177143 10.3806228,32.5714286 L10.3806228,32.5714286 L10.3806228,32.5714286 Z"/></g></g></g></svg>